<?xml version="1.0" standalone="no"?>
<!DOCTYPE svg PUBLIC "-//W3C//DTD SVG 20010904//EN"
 "http://www.w3.org/TR/2001/REC-SVG-20010904/DTD/svg10.dtd">
<svg version="1.0" xmlns="http://www.w3.org/2000/svg"
 width="260.000000pt" height="260.000000pt" viewBox="0 0 260.000000 260.000000"
 preserveAspectRatio="xMidYMid meet">
<metadata>
Created by potrace 1.11, written by Peter Selinger 2001-2013
</metadata>
<g transform="translate(0.000000,260.000000) scale(0.100000,-0.100000)"
fill="#000000" stroke="none">
<path d="M747 2118 c-5 -12 -377 -977 -497 -1288 -27 -69 -52 -133 -55 -142
-7 -17 4 -18 143 -18 l149 0 65 178 66 177 257 0 258 0 66 -177 66 -178 148 0
c81 0 147 2 147 5 0 7 -86 238 -104 280 -8 17 -112 287 -232 602 l-219 571
-126 1 c-95 1 -128 -1 -132 -11z m166 -418 c14 -41 49 -140 77 -220 29 -80 60
-168 70 -196 l18 -52 -205 1 c-184 0 -204 1 -198 16 4 9 30 81 60 161 29 80
72 198 96 262 24 65 46 115 50 110 3 -4 18 -41 32 -82z"/>
<path d="M1642 1810 c-4 -3 -7 -261 -7 -573 l-1 -568 266 3 c292 3 293 4 359
70 19 18 45 58 60 88 22 46 26 68 26 140 -1 121 -41 204 -125 261 l-38 26 36
34 c53 51 85 129 87 213 5 126 -41 226 -127 283 l-39 27 -245 1 c-134 0 -248
-1 -252 -5z m491 -94 c109 -56 137 -251 52 -362 -49 -64 -77 -71 -287 -71
l-188 0 0 227 0 228 191 -1 c174 0 194 -2 232 -21z m42 -529 c112 -68 133
-265 39 -376 -50 -60 -68 -64 -296 -66 l-207 -1 -3 41 c-2 22 -2 126 0 232 l3
192 110 3 c185 5 320 -5 354 -25z"/>
</g>
</svg>
